PathFileType	4	(X/Y/Z)	/Users/niels/Desktop/University/Third Semester/Perception and Action/Exam/Gymnastics Motion Tracking/Code for Gym Tracking/Analyzed Data/Webcam_Backflip/id2_2_trajectory_Sports2D/id2_2_trajectory_Sports2D_px_person00.trc
DataRate	CameraRate	NumFrames	NumMarkers	Units	OrigDataRate	OrigDataStartFrame	OrigNumFrames
29.928400954653938	29.928400954653938	8	22	m	29.928400954653938	314	419
Frame#	Time	Hip			RHip			RKnee			RAnkle			RBigToe			RSmallToe			RHeel			LHip			LKnee			LAnkle			LBigToe			LSmallToe			LHeel			Neck			Head			Nose			RShoulder			RElbow			RWrist			LShoulder			LElbow			LWrist		
		X1	Y1	Z1	X2	Y2	Z2	X3	Y3	Z3	X4	Y4	Z4	X5	Y5	Z5	X6	Y6	Z6	X7	Y7	Z7	X8	Y8	Z8	X9	Y9	Z9	X10	Y10	Z10	X11	Y11	Z11	X12	Y12	Z12	X13	Y13	Z13	X14	Y14	Z14	X15	Y15	Z15	X16	Y16	Z16	X17	Y17	Z17	X18	Y18	Z18	X19	Y19	Z19	X20	Y20	Z20	X21	Y21	Z21	X22	Y22	Z22
314	10.49170653907496	0.8590631296762562	-0.458776132565244	0.0	0.8535008000923725	-0.45442250890264263	0.0	0.8445384616353386	-0.6977985331478183	0.0	0.8114839089195723	-0.9254227923458248	0.0	0.9100467909458262	-0.9680056396500053	0.0	0.8859176384582063	-0.9795506214061773	0.0	0.78437353836753	-0.9545538722683027	0.0	0.8621051191786643	-0.4567239691090379	0.0	0.8919122130251679	-0.6886052538250491	0.0	0.8283283477030489	-0.8897932269914407	0.0	0.9199692288055004	-0.9293660534109698	0.0	0.9085505943732515	-0.9207527166885462	0.0	0.7934433298234166	-0.9168964619176605	0.0	0.9624796458400622	-0.16703417897452333	0.0	1.0380722412892653	-0.04145428723615786	0.0	1.0284949224461033	-0.12905282473631666	0.0	0.9507582882658242	-0.19843460607031413	0.0	0.9735759765584522	-0.3668414552316454	0.0	1.0297985113848482	-0.5014117048930025	0.0	0.9454836550791749	-0.20234082632318742	0.0	0.9462447041597353	-0.3598238648025236	0.0	0.9830017849352229	-0.49362407479476417	0.0
315	10.525119617224881	0.8558037974888797	-0.4591503037459999	0.0	0.8514114035920869	-0.45539276361444975	0.0	0.8424304730804157	-0.6972767478342351	0.0	0.8120346686180303	-0.9250552685109882	0.0	0.9114942577301227	-0.9683287593805765	0.0	0.8872232395515778	-0.9788853619547325	0.0	0.7846272802663806	-0.9540862449930342	0.0	0.8541080372613304	-0.4571263999367063	0.0	0.8766602337117033	-0.6890278118338725	0.0	0.8222807204037647	-0.8920138741961298	0.0	0.9168629692623146	-0.9303196008232874	0.0	0.9045628825446534	-0.9216045702202551	0.0	0.7853918166320428	-0.9182106968402871	0.0	0.9609568891878948	-0.16803108938227895	0.0	1.0377810912984187	-0.04331232579674935	0.0	1.028178541281261	-0.13060677323795739	0.0	0.9517883009015462	-0.19875503248737258	0.0	0.9599200282306883	-0.37017050330882123	0.0	1.0038133056044516	-0.5107297649660586	0.0	0.9426956089222347	-0.20316540909465175	0.0	0.9421935375378742	-0.36103000212432534	0.0	0.9812588454185188	-0.494243955027424	0.0
316	10.5585326953748	0.8523415927363683	-0.459120189421382	0.0	0.8490967619855477	-0.455918157969338	0.0	0.8403403860612907	-0.6967302573947748	0.0	0.811940168165204	-0.924877385209448	0.0	0.9122780464832253	-0.9686636210872795	0.0	0.8879336418758724	-0.9784747857513182	0.0	0.784645032244923	-0.9538860940761946	0.0	0.847629644513642	-0.45702146305698016	0.0	0.8632844184850224	-0.6891597148558137	0.0	0.8183309575811013	-0.8939630437981558	0.0	0.91548662817658	-0.9317485693273585	0.0	0.902257191285725	-0.9227050414348467	0.0	0.7807358793165359	-0.9196672072264308	0.0	0.9590359414083356	-0.16851805037752146	0.0	1.0367185765421172	-0.04450091983937793	0.0	1.0271452360514715	-0.1313868619169665	0.0	0.951284847296414	-0.19881213965022942	0.0	0.9485195530301388	-0.37189647056689773	0.0	0.9838325850958974	-0.5159270771000632	0.0	0.9399934002525647	-0.20352251659821885	0.0	0.9379422031822653	-0.36235565675736525	0.0	0.9777127650062482	-0.4962934968257056	0.0
317	10.59194577352472	0.8486548964437518	-0.45866189479967145	0.0	0.8465684881600332	-0.4559531878911875	0.0	0.8384099058394102	-0.6961983441952911	0.0	0.8112816872369667	-0.9248838074872102	0.0	0.9123524901778324	-0.9689251526834661	0.0	0.8880763931758039	-0.978472002025285	0.0	0.7845471026361336	-0.9539769746735323	0.0	0.8427329052815891	-0.45642353597333296	0.0	0.8527453521201138	-0.6890460581235567	0.0	0.8161965858204885	-0.8954690141033096	0.0	0.9150653585221391	-0.9333000662875591	0.0	0.9011317822715162	-0.9238240060903136	0.0	0.7792889556689043	-0.9211295479364746	0.0	0.956667464710635	-0.16844024031349408	0.0	1.03480111379213	-0.04486553172475329	0.0	1.0252544081937052	-0.13144726809481963	0.0	0.9493256806148521	-0.19881829235528384	0.0	0.9391031780458897	-0.37240002450449816	0.0	0.9691944317051486	-0.518151081754548	0.0	0.9373362044196254	-0.20333820715502837	0.0	0.9339614756568683	-0.3635652510308673	0.0	0.9733034259676239	-0.49915495815338956	0.0
318	10.62535885167464	0.8449398245467382	-0.4579615626838402	0.0	0.8440030064491845	-0.4557511142115349	0.0	0.8367031133664223	-0.6957710856776799	0.0	0.8103235121556609	-0.9250389974671354	0.0	0.9119361765439717	-0.9691076333372105	0.0	0.8878686838505377	-0.9788947472680929	0.0	0.7844601227694015	-0.9543486101103087	0.0	0.8394093421256223	-0.45564816506014055	0.0	0.8452704264639244	-0.6887824471427437	0.0	0.8153219036306097	-0.8964616700887192	0.0	0.9149715259747778	-0.9345767927124916	0.0	0.9007149054993997	-0.9246770983582325	0.0	0.7801978764662937	-0.9223772762499552	0.0	0.9538356223711104	-0.16778487459710895	0.0	1.032089946841883	-0.04440598793221259	0.0	1.0225282288670114	-0.13088411802351477	0.0	0.9460655017942672	-0.1987615927110954	0.0	0.9312652548127978	-0.3718508672579798	0.0	0.9586360865351521	-0.518268970435002	0.0	0.9345814482371915	-0.20262890036243877	0.0	0.930679105005142	-0.3643866212206575	0.0	0.9691715545556169	-0.5018945896802979	0.0
319	10.658771929824562	0.8415182473839525	-0.4572484859826823	0.0	0.8416182361906223	-0.45563234628698623	0.0	0.8352133994502423	-0.6954724413625157	0.0	0.8093862336750653	-0.9252741062958534	0.0	0.9114274727137808	-0.9692441485474157	0.0	0.8876147221322095	-0.9796022332356079	0.0	0.7844398284860289	-0.9549431814477667	0.0	0.8375175727356097	-0.45510180235965825	0.0	0.840611284639405	-0.6884361439778941	0.0	0.8152253354985135	-0.8970423683590487	0.0	0.9150012728857329	-0.9353774439109636	0.0	0.9007484011852255	-0.9251452287521283	0.0	0.7823849481403278	-0.9233441366258013	0.0	0.9505636363559951	-0.16660773301335413	0.0	1.028701576492839	-0.043222190656577675	0.0	1.0191156068892495	-0.12973365385041483	0.0	0.941736452674904	-0.19850968109121692	0.0	0.9247186491955691	-0.37045052546643026	0.0	0.9510088029706358	-0.5170078790611338	0.0	0.9315474485190933	-0.20152392838654018	0.0	0.9281275094054592	-0.3646078883192408	0.0	0.965873067449626	-0.5036714944458762	0.0
320	10.692185007974482	0.8387009115376943	-0.45667655920341926	0.0	0.8395127663509031	-0.45579602013141	0.0	0.8339039277209275	-0.6952819203570929	0.0	0.8086987850469998	-0.9255179537847024	0.0	0.9111496684824367	-0.9693840379619647	0.0	0.8875382576999182	-0.9804261470496355	0.0	0.784449506305455	-0.9557059567510575	0.0	0.8367564897168125	-0.45507412743357756	0.0	0.8382254211334231	-0.6880836497989836	0.0	0.8156395581849646	-0.897490852251752	0.0	0.9152893138251749	-0.9358892197479225	0.0	0.9012058037253292	-0.9254395261543716	0.0	0.7848996131295095	-0.9242632699592483	0.0	0.9469341702833927	-0.1650353333903538	0.0	1.0246839165205899	-0.04143065112038932	0.0	1.01515847761646	-0.12797768994191872	0.0	0.9366294380907323	-0.1979267682627454	0.0	0.9192958058197184	-0.3684803047460803	0.0	0.9455839054377135	-0.5149926780010323	0.0	0.9281596634393122	-0.2002522304487817	0.0	0.9259339232126212	-0.3641961075221184	0.0	0.963173296132208	-0.5040613406229568	0.0
321	10.725598086124402	0.8366564346479761	-0.45631668226783106	0.0	0.8376559550905676	-0.4562872498774929	0.0	0.8327725944067011	-0.6952364372682159	0.0	0.808371941209246	-0.9257530337802646	0.0	0.9112346083405224	-0.9695303856081251	0.0	0.8877184666434622	-0.9812371628887899	0.0	0.7844536182297999	-0.9565786234450439	0.0	0.8367717697072512	-0.4556583342833618	0.0	0.8374123954382249	-0.6878472832088723	0.0	0.8164154378059816	-0.8980838408101874	0.0	0.9159751548268739	-0.9364297026997871	0.0	0.9021283936330493	-0.9258607656859539	0.0	0.7870721386436463	-0.9254203942002395	0.0	0.9430668979081295	-0.16323244740128162	0.0	1.020043644543649	-0.03914582933038606	0.0	1.0107192692803062	-0.1256511824527118	0.0	0.9310015965381091	-0.19699172843122925	0.0	0.9149041842653054	-0.3663113048095236	0.0	0.9420797068814067	-0.5127405990221965	0.0	0.9245228812523507	-0.199068236182503	0.0	0.9235872447552189	-0.3632986058998977	0.0	0.9604740125814855	-0.503107375898773	0.0
